<?xml version="1.0" encoding="UTF-8" standalone="no"?><!DOCTYPE svg PUBLIC "-//W3C//DTD SVG 1.1//EN" "http://www.w3.org/Graphics/SVG/1.1/DTD/svg11.dtd"><svg width="100%" height="100%" viewBox="0 0 971 277" version="1.1" xmlns="http://www.w3.org/2000/svg" xmlns:xlink="http://www.w3.org/1999/xlink" xml:space="preserve" xmlns:serif="http://www.serif.com/" style="fill-rule:evenodd;clip-rule:evenodd;stroke-linejoin:round;stroke-miterlimit:1.41421;"><g id="Smackwater-Jacks-Tours-Group" serif:id="Smackwater Jacks Tours Group"><g id="Smackwater-Jacks" serif:id="Smackwater Jacks"><path d="M148.14,26.158c12.4,-3.89 25.46,-5.14 38.41,-5.45c8,0.01 16.08,0.16 23.98,1.64c1.74,0.52 4,0.59 4.94,2.43c0.05,1.32 -0.57,2.12 -1.86,2.39c-3.31,1.16 -7.28,1.71 -10.5,0.06c-0.11,-0.45 -0.31,-1.34 -0.41,-1.78c-14.93,-0.62 -29.99,-0.06 -44.65,2.96c-4.31,0.97 -8.7,1.96 -12.59,4.11c-1.4,0.94 -3.53,2.1 -2.87,4.13c2.43,2.21 5.87,2.41 8.95,2.96c18.17,2.44 36.76,-0.21 54.78,3.65c5.03,1.19 10.43,2.69 14.08,6.59c2.86,3.07 2.51,7.77 0.64,11.26c-3.5,6.58 -9.58,11.24 -15.63,15.35c-12.28,7.95 -25.8,13.86 -39.68,18.4c-19.47,6.36 -39.72,10.26 -60.12,11.87c-15,1.06 -30.21,1.52 -45.08,-1.1c-6.4,-1.43 -13.2,-3 -18.26,-7.42c-3.07,-2.48 -4.76,-6.68 -3.72,-10.56c1.38,-5.99 5.98,-10.53 10.66,-14.2c12.58,-9.14 27.5,-14.44 42.47,-18.16c19.57,-4.73 39.78,-6.41 59.87,-6c7.66,0.32 15.46,0.97 22.68,3.69c2.65,1.07 5.73,2.6 6.45,5.65c0.45,2.78 -1.65,5.02 -3.55,6.72c-3.97,3.3 -8.79,5.32 -13.52,7.25c-13.42,5.34 -27.72,8.08 -42.02,9.72c-7.04,0.52 -14.75,1.86 -21.25,-1.68c-0.35,-4 4.04,-5.12 7.12,-5.71c2.46,-0.68 4.99,-0.39 7.39,0.4c0.08,0.5 0.25,1.5 0.33,2c-1.5,1.04 -4.64,0.05 -5.27,1.99c16.53,-1.67 33.03,-4.94 48.73,-10.56c4.35,-1.71 8.91,-3.35 12.44,-6.53c1.24,-1 2.08,-2.69 1.46,-4.28c-1.53,-1.72 -3.84,-2.32 -6.01,-2.77c-6.89,-1.29 -13.94,-1.38 -20.93,-1.35c-20.69,0.24 -41.31,3.64 -61.11,9.57c-11.26,3.65 -22.65,7.94 -31.97,15.43c-3.78,3.07 -7.49,7.65 -6.5,12.84c1.19,4.69 6.21,6.73 10.34,8.14c13.02,3.68 26.75,3.54 40.15,2.9c28.54,-1.95 56.6,-9.15 83.11,-19.78c9.34,-3.92 18.66,-8.29 26.71,-14.53c4.39,-3.39 8.3,-7.92 8.98,-13.64c-1.7,-5.38 -7.92,-6.29 -12.7,-7.19c-17.22,-2.55 -34.74,0.28 -51.93,-2.63c-4.69,-0.9 -9.76,-1.74 -13.53,-4.9c-2.22,-1.72 -2.11,-5.15 -0.41,-7.19c2.82,-3.54 7.25,-5.23 11.4,-6.69Z" style="fill:#fdfdfd;fill-rule:nonzero;"/><path d="M692.67,28.278c27.08,-4.46 54.72,-2.7 81.77,1.04c-1.12,-2.82 1.77,-4.29 4.15,-3.62c2.48,0.1 2.81,2.84 3.58,4.65c2.96,0.45 5.94,0.99 8.77,2.03c0.08,0.44 0.23,1.31 0.31,1.75c-3.12,1.66 -6.61,0.59 -9.89,0.3c-2.95,8.95 -8.71,16.57 -14.56,23.81c-8.02,9.7 -16.65,18.95 -26.2,27.17c4.85,-0.71 9.63,-2.01 14.05,-4.16c1.95,-1.07 3.92,0.04 5.3,1.48c-7.74,6.17 -18.36,6.05 -27.27,9.41c-15.1,11.84 -32.68,20.23 -51.12,25.4c-13.66,3.79 -27.87,6.92 -42.12,5.58c-3.59,-0.54 -7.94,-0.99 -10.07,-4.35c-0.82,-2.29 0.9,-4.28 2.58,-5.59c3.79,-2.93 8.34,-4.65 12.8,-6.3c24.34,-8.15 49.73,-12.34 74.85,-17.26c2.48,-0.51 5.3,-0.6 7.16,-2.58c13.35,-11.3 25.22,-24.28 36.02,-38.01c3.88,-4.87 7.36,-10.03 10.34,-15.5c-16.45,-2.03 -33.01,-3.29 -49.59,-3.3c-10.07,0.02 -20.25,0.12 -30.11,2.37c-5.2,1.4 -10.9,3.39 -13.9,8.19c-2.3,3.79 -3.14,9.25 0.02,12.82c3.09,3.46 7.05,6.06 11.16,8.18c1.04,0.69 3.42,1.27 2.2,3.08c-2.96,1.71 -6.11,-0.35 -8.9,-1.39c-5.71,-2.68 -11.7,-5.51 -15.86,-10.4c-3.29,-4.8 -2.36,-11.88 2.03,-15.69c6.18,-5.54 14.57,-7.53 22.5,-9.11m-39.65,81.67c-5.27,2 -11,3.49 -15.37,7.21c0.16,1.79 2.39,1.96 3.79,2.24c8.82,0.83 17.67,-0.68 26.26,-2.61c17.51,-4.3 34.48,-11.4 49.13,-22.03c-21.44,4.26 -42.97,8.51 -63.81,15.19Z" style="fill:#fdfdfd;fill-rule:nonzero;"/><path d="M413.99,38.458c3.3,-1.31 7.01,-2.96 10.59,-1.7c0.05,0.48 0.16,1.44 0.21,1.92c-13.72,6.32 -24.73,17.01 -34.62,28.19c7.98,-2.3 16.45,-4.64 24.76,-2.75c2.04,0.37 3.57,2.84 5.78,1.82c4.34,-1.12 9.26,-1.76 13.38,0.44c2.14,1.23 3.31,3.92 2.57,6.32c-1.09,5.28 -4.22,9.84 -7.44,14.05c1.85,-1.06 3.61,-2.66 5.84,-2.74c0.3,-0.77 0.59,-1.54 0.89,-2.31c6.28,-2.87 10.18,-9 15.57,-13.1c2.4,-1.89 5.72,-2.65 8.61,-1.43c2.41,2.74 -2.69,4.27 -3.43,6.68c-1.43,4.99 -1.25,10.36 -3.4,15.17c7.72,-5.21 15.55,-11.12 19.97,-19.55c0.99,-1.46 0.68,-3.22 0.58,-4.87c3.99,-2.32 9.07,1.55 8.11,6c-2.22,6.66 -8.23,10.86 -13.61,14.88c-7.07,5.38 -15.03,9.41 -22.25,14.56c-2.08,1.56 -4.65,0.36 -6.88,-0.12c-0.49,-2.58 1.21,-4.38 2.71,-6.19c1.89,-3.5 2.29,-7.57 2.92,-11.44c-8.28,6.42 -17.45,11.53 -25.93,17.66c-2.19,1.71 -5.43,1.55 -7.58,-0.13c-0.47,-1.53 0.24,-3.13 1.4,-4.13c4.73,-4.72 8.48,-10.39 11.33,-16.42c1.18,-3 2.88,-6.19 1.87,-9.47c-6.45,-0.44 -12.34,2.95 -18.53,4.25c-6.26,1.53 -12.74,1.59 -19.14,1.34c4.57,12.84 12.49,25.12 24.56,32.01c7.48,4.44 16.9,6.62 25.34,3.81c3.5,-1.04 4.92,-4.49 6.4,-7.45c2.09,-0.68 5.26,-0.64 6.1,1.84c1.15,3.01 -1.31,6.04 -3.92,7.27c-6.55,3.14 -14.03,3.43 -21.16,3.14c-20.38,-1.69 -38.63,-16.68 -45.06,-35.98c-4.42,5.46 -8.74,11.04 -13.7,16.03c-2.75,2.52 -6.03,6.01 -10.17,4.45c-1.91,-0.85 -0.91,-3.27 -0.65,-4.8c2.58,-9.69 10.74,-16.44 18.63,-21.94c10.26,-14.45 23.2,-27.55 39.35,-35.31m-23.64,33.03c5.86,0.26 12.92,0.53 17.63,-3.48c-6.11,-0.77 -11.97,1.55 -17.63,3.48Z" style="fill:#fdfdfd;fill-rule:nonzero;"/><path d="M896.42,39.408c3.82,-1.75 8.2,-3.74 12.42,-2.17c-0.01,0.44 -0.02,1.32 -0.02,1.75c-14,6.13 -24.9,17.19 -34.96,28.37c7.61,-2.51 15.73,-4.49 23.78,-3.26c2.02,0.51 4.76,1.14 5.26,3.52c-0.7,3.02 -3.93,4.22 -6.49,5.24c-7.76,2.78 -16.12,3.24 -24.28,2.74c2.75,7.9 6.93,15.25 12.04,21.85c0.48,-5.52 5.92,-8.31 10.41,-10.31c3.74,-1.28 7.89,-2.74 11.85,-1.56c0,0.46 0,1.39 -0.01,1.86c-5.14,1.76 -11.77,3.69 -12.89,9.9c5.29,1.5 10.52,-2.04 13.23,-6.39c3.57,-5.66 2.03,-12.86 5.04,-18.75c1.69,-3.89 5.63,-6.24 9.61,-7.21c4.79,-1.07 10.16,-1.18 14.36,1.75c-0.84,5.08 -7.29,8.22 -12.01,6.94c0.1,-0.48 0.31,-1.42 0.41,-1.89c1.07,-1.13 1.87,-2.46 2.31,-3.96c-2.43,0.42 -4.77,1.81 -5.33,4.38c-1.46,6.1 -0.08,13.04 -3.94,18.45c-6.54,9.16 -19.24,12.73 -29.93,10.1c6.82,5.96 14.92,11.11 24.18,11.83c4.48,0.25 9.55,0.27 13.25,-2.65c2.05,-1.47 2.43,-4.15 3.94,-6.02c1.76,-0.51 3.56,0.02 5.29,0.42c1.54,2.74 0.87,6.24 -1.92,7.87c-6.57,4.29 -14.88,4.24 -22.45,4.08c-20.48,-1.64 -38.9,-16.77 -45.19,-36.24c-2.71,4.05 -6.02,7.65 -9.12,11.38c-3,3.29 -5.94,6.82 -9.85,9.05c-1.81,1.06 -3.89,0.57 -5.78,0.17c-0.64,-7.89 4.76,-14.59 10.13,-19.74c2.81,-2.94 6.52,-4.79 9.42,-7.6c9.71,-13.82 22.07,-26.19 37.24,-33.9m-22.01,32.47c5.88,0.47 11.86,-0.38 17.3,-2.72c-0.54,-0.77 -1.26,-1.12 -2.15,-1.05c-5.27,0.08 -10.33,1.8 -15.15,3.77Z" style="fill:#fdfdfd;fill-rule:nonzero;"/><path d="M558.44,54.888c2.32,-1.83 5.01,-3.7 8.12,-3.52c1.28,0.14 3.03,0.51 2.86,2.18c-4.54,4.03 -8.62,8.59 -12.05,13.6c4.4,0.07 8.86,0.06 13.18,0.97c1.68,0.17 3.02,1.19 3.74,2.72c-1.55,0.54 -3.13,1.06 -4.77,0.79c-5.2,-0.41 -10.42,-0.31 -15.62,-0.2c-4.71,6.17 -9.58,12.26 -13.58,18.92c2.6,-0.77 5.51,-2.13 8.11,-0.53c0.81,2.59 -2.39,2.58 -3.98,3.48c-4.9,1.64 -8.59,5.4 -13,7.91c-2.25,1.39 -4.89,0.28 -7.13,-0.51c4.69,-10.3 11.47,-19.54 18.17,-28.61c-2.44,0.33 -6.59,0.77 -6.75,-2.66c3.25,-1.77 7.01,-1.54 10.54,-2.2c3.81,-4.34 7.71,-8.64 12.16,-12.34Z" style="fill:#fdfdfd;fill-rule:nonzero;"/><path d="M218.6,67.758c3.57,-2.44 7.76,-4.1 12.05,-4.65c2.24,-0.06 6.15,0.32 5.61,3.48c-1.67,3.66 -4.39,6.7 -6.76,9.91c6.23,-3.77 12.4,-7.74 19.13,-10.57c2.93,-1.32 7.76,-1.61 8.8,2.23c-1.93,2.77 -3.92,5.49 -5.97,8.16c6.24,-3.78 12.45,-7.72 19.22,-10.49c2.9,-1.29 6.75,-1.15 8.59,1.78c-1.5,2.65 -3.39,5.04 -5.29,7.42c-5.18,6.55 -9.85,13.48 -14.48,20.42c1.96,-0.95 4.07,-1.39 6.25,-1.16c0.25,0.58 0.73,1.75 0.98,2.33c-4.06,2.83 -8.73,6.24 -13.98,4.84c-2.39,-0.51 -3.8,-3.2 -2.65,-5.41c3.04,-7.93 8.76,-14.43 13.64,-21.27c-10.08,5.59 -19.43,12.6 -27.27,21.07c-2.66,2.56 -7.57,5.53 -10.71,2.12c5.64,-7.9 11.81,-15.45 17.02,-23.66c-5.56,3.15 -10.89,6.68 -16.03,10.47c-5.68,4.33 -10.23,10.03 -16.29,13.88c-1.77,1.22 -3.95,0.43 -5.78,-0.19c0.35,-3 2.82,-4.98 4.41,-7.35c5.1,-7.02 10.03,-14.16 14.89,-21.35c-1.78,-0.05 -5.24,0.65 -5.38,-2.01Z" style="fill:#fdfdfd;fill-rule:nonzero;"/><path d="M318.77,66.048c2.69,-1.37 5.98,-1.48 8.49,0.35c-0.56,1.37 -1.2,2.72 -2.12,3.89c-4.77,6.31 -9.2,12.86 -13.8,19.3c4.14,-1.14 9.77,-5.27 13.28,-0.99c-7.63,3.44 -15.49,6.67 -22.18,11.83c-2.62,2.23 -6.48,2.31 -9.32,0.46c2.2,-3.84 5.28,-7.05 7.7,-10.74c-6.3,3.74 -12.76,8.18 -20.34,8.42c-3.03,-0.03 -6.98,-1.27 -7.23,-4.87c0.34,-5.38 4.12,-9.75 7.74,-13.43c7.16,-6.4 15.68,-11.42 24.95,-14.02c4.18,-1.2 8.63,-1.38 12.83,-0.2m-24.65,12.2c-4.66,4.44 -9.56,9.23 -11.7,15.45c5.62,-1.32 10.46,-4.65 15.16,-7.84c6.26,-4.69 12.89,-9.46 16.87,-16.36c-7.73,-0.9 -14.73,3.95 -20.33,8.75Z" style="fill:#fdfdfd;fill-rule:nonzero;"/><path d="M356.64,64.988c4.25,-0.58 9.5,-1.2 12.65,2.41c-1.04,4.62 -8.1,7.17 -11.46,3.66c0.55,-0.96 1.09,-1.91 1.64,-2.87c-7.05,1.65 -12.8,6.56 -17.73,11.64c-3.81,4.41 -7.89,9.55 -7.83,15.67c8.57,-1.13 15.25,-7.58 20.47,-14.02c1.42,-0.97 3.59,-0.65 4.93,0.39c0.86,1.73 -0.72,3.48 -1.66,4.83c-4.88,5.75 -11.53,10 -18.74,12.16c-4.15,1.25 -8.61,0.87 -12.55,-0.85c-5.03,-4.43 -1.22,-11.29 1.96,-15.6c7.15,-8.68 17.36,-14.92 28.32,-17.42Z" style="fill:#fdfdfd;fill-rule:nonzero;"/><path d="M559.77,86.728c8,-12.13 21.4,-20.76 35.88,-22.49c3.55,-0.29 7.71,-0.81 10.66,1.65c1.69,2.39 -1.07,4.56 -2.88,5.76c-6.61,3.83 -14.63,4.7 -22.08,3.36c-5.26,4.3 -9.76,9.61 -12.91,15.64c-0.91,1.65 -1.02,3.57 -1.26,5.4c5.87,-0.25 11.04,-3.7 15.15,-7.65c2.25,-2.17 3.12,-5.34 5.28,-7.56c1.81,-0.86 3.7,0.04 5.46,0.58c0.05,4.15 -2.84,7.44 -5.66,10.14c-5.22,4.68 -11.76,8.24 -18.81,8.95c-3.48,0.24 -7.49,-0.11 -10.03,-2.79c-2.48,-3.31 -0.78,-7.86 1.2,-10.99m26.49,-15.21c3.77,0.57 7.68,-0.72 10.4,-3.4c-3.68,0.36 -7.06,1.95 -10.4,3.4Z" style="fill:#fdfdfd;fill-rule:nonzero;"/><path d="M612.47,66.688c4.12,-1.02 8.46,-3.59 12.65,-1.28c-0.42,2.18 -1.32,4.22 -2.26,6.21c5.11,-2.96 10.64,-5.79 16.65,-6.1c2.02,-0.23 3.74,0.97 5.42,1.9c-0.08,6.19 -8.29,12.4 -13.92,8.57c1.36,-1.51 2.68,-3.06 3.57,-4.9c-8.96,3.88 -17.1,9.83 -23.24,17.45c-4.58,5.33 -9.22,11.84 -16.72,12.87c-1.35,0.01 -4.83,-0.05 -3.83,-2.24c6.03,-4.36 10.35,-10.53 14.7,-16.46c2.69,-3.64 5.02,-7.53 6.95,-11.62c-1.77,-0.34 -5.01,0.08 -4.99,-2.52c1.36,-1.25 3.34,-1.3 5.02,-1.88Z" style="fill:#fdfdfd;fill-rule:nonzero;"/><path d="M829.65,69.108c6.36,-3.11 13.77,-5.49 20.83,-3.55c2.43,0.55 3.18,3.69 1.14,5.19c-2.74,1.83 -7.71,3.96 -9.85,0.3c0.39,-0.64 1.18,-1.9 1.57,-2.54c-6.78,1.48 -12.26,6.16 -17.08,10.89c-4.04,4.53 -8.24,9.74 -8.57,16.07c4.67,0.44 8.62,-2.77 12.24,-5.28c3.04,-2.28 5.65,-5.05 7.98,-8.05c1.43,-1.81 3.77,-0.52 5.59,-0.25c0.09,3.94 -3.3,6.54 -5.87,9.04c-5.65,4.74 -12.53,8.62 -20.03,9.02c-3.74,-0.12 -8.53,-1.2 -9.78,-5.27c-0.64,-4.26 1.78,-8.17 4.06,-11.55c4.59,-6.09 11.03,-10.59 17.77,-14.02Z" style="fill:#fdfdfd;fill-rule:nonzero;"/><path d="M508.51,66.198c3.84,-0.92 7.94,-1.3 11.75,-0.03c2.93,-1.11 6.24,-1.66 8.99,0.23c-0.96,3.06 -3.23,5.37 -5,7.96c-3.76,5.05 -7.19,10.34 -11,15.36c4.01,-1.45 8.22,-3.9 12.59,-2.42c0.06,0.47 0.18,1.43 0.24,1.91c-7.94,2.91 -15.52,6.78 -22.35,11.78c-2.43,1.73 -7.11,2.4 -8.43,-0.95c2.7,-3.02 5.12,-6.27 7.4,-9.61c-6.32,3.56 -12.71,8.12 -20.24,8.24c-3,0 -7.11,-1.34 -7.14,-4.94c0.4,-5.62 4.41,-10.18 8.29,-13.93c7.2,-6.22 15.69,-11.08 24.9,-13.6m-15.92,15.58c-3.1,3.69 -6.9,7.26 -8.08,12.1c7.66,-2.16 14.13,-7.11 20.36,-11.87c4.27,-3.71 9.17,-7.29 11.43,-12.66c-9.43,-0.2 -17.42,6.04 -23.71,12.43Z" style="fill:#fdfdfd;fill-rule:nonzero;"/><path d="M776.11,72.368c7.93,-4.41 17.13,-8.38 26.36,-6.17c2.85,-0.81 5.84,-1.41 8.57,0.21c-0.62,2.87 -2.72,4.99 -4.36,7.29c-3.91,5.32 -7.56,10.81 -11.46,16.11c4.11,-1.13 9.61,-5.09 13.28,-1.1c-1,0.7 -2.05,1.28 -3.15,1.75c-7.06,2.49 -13.55,6.37 -19.67,10.64c-2.29,1.64 -5.53,1.98 -7.94,0.43c-0.85,-1.29 0.54,-2.34 1.14,-3.34c2,-2.6 4.04,-5.16 5.89,-7.87c-6.95,4.21 -14.56,9.65 -23.12,8.16c-3.2,-0.36 -5.32,-3.81 -4.23,-6.82c2.96,-8.87 11,-14.67 18.69,-19.29m3.24,5.05c-5.26,4.61 -10.64,9.81 -13.02,16.53c6.25,-1.42 11.49,-5.39 16.71,-8.91c5.68,-4.35 11.57,-8.87 15.19,-15.19c-7.1,-1.11 -13.58,3.38 -18.88,7.57Z" style="fill:#fdfdfd;fill-rule:nonzero;"/></g><g id="Tours"><path d="M606.06,132.528c9.84,-1.65 21.12,-0.37 28.68,6.71c4.03,3.6 4.85,9.71 3.01,14.62c-2.94,7.84 -9.81,13.58 -17.31,16.9c-10.51,4.87 -22.91,6.87 -34.07,3.07c-5.29,-1.88 -10.67,-5.45 -12.25,-11.15c-1.75,-6.43 1.48,-12.93 5.84,-17.51c6.89,-7.08 16.51,-10.94 26.1,-12.64m-2.35,7.44c-7.02,1.83 -14.02,5.8 -17.34,12.51c-2.1,4.16 -1.32,9.85 2.66,12.59c6.88,5.21 16.4,4.28 23.99,1.24c6.05,-2.42 11.89,-6.95 13.68,-13.47c1.27,-4.05 -0.65,-8.69 -4.28,-10.82c-5.47,-3.62 -12.55,-3.68 -18.71,-2.05Z" style="fill:#fdfdfd;fill-rule:nonzero;"/><path d="M885.32,137.328c10.94,-5.96 24.35,-7 36.19,-3.28c3.18,-0.82 7.4,-2.17 9.6,1.26c-0.88,2.75 -1.65,5.54 -2.77,8.2c-1.36,3.9 -6.45,5.11 -9.97,3.67c-2.07,-1.25 -0.74,-4.36 -2.66,-5.69c-4.86,-3.19 -11.09,-2.79 -16.58,-1.98c-3.45,0.77 -7.63,1.83 -9.31,5.28c0,2.07 1.86,3.44 3.71,3.88c7.87,2.09 16.23,1.78 23.98,4.43c3.05,1.05 6.36,3.07 6.96,6.51c0.57,5.61 -4.28,9.98 -9.01,11.98c-11.87,5.13 -25.67,5.6 -37.94,1.59c-3.3,1.59 -7.38,2.34 -10.43,-0.2c0.97,-3.67 1.74,-7.63 4.1,-10.7c2.35,-1.66 5.47,-2.17 8.24,-1.38c2.29,0.86 1.4,4.34 3.61,5.29c7.98,3.6 17.41,3.24 25.57,0.39c2.32,-0.73 5.44,-2.94 3.82,-5.68c-2.93,-2.34 -6.86,-2.47 -10.4,-3.03c-6.28,-0.92 -12.86,-1.17 -18.64,-4.01c-2.71,-1.32 -5.34,-3.88 -5.06,-7.13c-0.06,-4.32 3.53,-7.45 6.99,-9.4Z" style="fill:#fdfdfd;fill-rule:nonzero;"/><path d="M485.65,132.978c19.52,-0.16 39.05,0.02 58.57,-0.03c-1.83,5.08 -3.26,10.32 -5.39,15.28c-2.27,3.74 -7.72,3.96 -11.12,1.69c0.37,-3.43 1.71,-6.64 2.87,-9.86c-4.17,-0.11 -8.35,-0.09 -12.52,-0.04c-3.01,9.21 -6.09,18.4 -9.28,27.55c5.22,0.7 10.93,-1.03 15.83,1.29c1.55,3.54 -3.17,5.31 -5.87,5.77c-10.74,0.25 -21.48,0.07 -32.22,0.06c-1.69,-0.29 -4.51,0.22 -4.97,-2.02c-0.87,-1.76 1.24,-2.77 2.37,-3.63c4.12,-2.33 9.1,-1.04 13.6,-1.38c3.07,-9.2 6.08,-18.42 9.44,-27.51c-4.12,-0.34 -8.26,-0.18 -12.38,-0.16c-1.62,4.01 -1.89,10.2 -7.13,11.12c-2.27,0.44 -6.48,0.58 -6.84,-2.49c1.29,-5.33 3.55,-10.36 5.04,-15.64Z" style="fill:#fdfdfd;fill-rule:nonzero;"/><path d="M679.6,133.338c5.27,-0.83 10.66,-0.19 15.98,-0.41c3.22,0.15 6.78,-0.65 9.71,1.06c1.38,1.39 0.24,3.42 -1.19,4.21c-2.8,2.15 -6.47,1.84 -9.78,1.87c-2.17,6.94 -4.73,13.74 -6.9,20.68c-1.15,2.81 1.28,5.34 3.67,6.42c5.28,2.44 11.5,1.84 16.89,0.05c3.32,-1.34 7.16,-3.02 8.33,-6.74c2.31,-6.78 4.6,-13.58 6.88,-20.37c-3.68,-0.13 -7.48,0.35 -10.97,-1.04c-0.18,-0.57 -0.55,-1.73 -0.73,-2.31c4.35,-5.65 11.97,-3.4 18.05,-3.78c4.46,0.36 9.45,-1.03 13.48,1.44c0.52,4.49 -5.23,5.5 -8.62,5.73c-2.07,6.57 -4.37,13.07 -6.58,19.6c-1.28,4 -4.36,7.1 -7.78,9.4c-8.09,5.26 -18.05,7.32 -27.61,6.47c-5.09,-0.57 -10.41,-2.12 -14.05,-5.91c-2.34,-2.23 -3.42,-5.79 -2.25,-8.87c2.15,-6.95 4.61,-13.79 6.98,-20.67c-2.8,-0.39 -6.06,0.29 -8.39,-1.66c-0.98,-2.93 2.72,-4.39 4.88,-5.17Z" style="fill:#fdfdfd;fill-rule:nonzero;"/><path d="M773.03,136.068c2.07,-2.49 5.4,-3.25 8.51,-3.14c9.91,0.01 19.83,0.01 29.75,0.09c6.13,0.26 12.99,0.83 17.72,5.19c2.73,2.4 3.02,6.83 0.8,9.66c-3.75,4.83 -9.88,6.73 -15.46,8.54c4.1,3.27 8.05,6.79 11.05,11.15c2.31,0.49 5.81,-0.39 7.07,2.21c0.65,2.47 -1.95,3.93 -3.95,4.48c-3.64,0.87 -7.44,0.39 -11.15,0.42c-4.05,-5.49 -8.76,-10.66 -14.61,-14.26c-4.1,-2.8 -9.33,-1.32 -13.95,-1.56c-0.98,2.95 -2.05,5.87 -3,8.83c3.54,0.1 7.17,-0.36 10.67,0.43c1.37,0.14 1.76,1.57 2.45,2.54c-2.3,2.81 -5.69,4.5 -9.37,4.06c-8.7,-0.45 -17.6,0.98 -26.16,-0.93c-0.98,-2.85 1.7,-4.89 4.12,-5.56c2.3,-0.61 4.7,-0.5 7.06,-0.64c3.01,-9.22 6.31,-18.35 9.27,-27.59c-3.33,-0.06 -6.82,0.44 -10,-0.72c-1.26,-0.47 -1.74,-2.19 -0.82,-3.2m22.14,3.98c-1.25,3.92 -2.65,7.79 -3.97,11.69c7.11,-0.04 14.39,0.45 21.27,-1.77c2.85,-0.97 6.64,-1.95 7.42,-5.32c-0.82,-3.18 -4.42,-4.05 -7.24,-4.41c-5.81,-0.49 -11.66,-0.29 -17.48,-0.19Z" style="fill:#fdfdfd;fill-rule:nonzero;"/></g><path id="Keyline" d="M35.23,152.268c2.3,-3.15 6.45,-4.55 10.26,-4.32c125.7,0.09 251.41,0.16 377.11,0.25c-1.57,3.2 -5.75,4.39 -9.1,4.35c-126.09,-0.12 -252.18,-0.1 -378.27,-0.28Z" style="fill:#fdfdfd;fill-rule:nonzero;"/><g id="Presents"><path d="M604.09,205.408c1.73,-0.35 3.49,-0.5 5.27,-0.45c2.56,2.75 1.58,6.65 1.71,10.06c5.43,0.08 10.87,-0.12 16.3,0.09c2.09,0 4.72,1.89 3.57,4.15c-0.56,1.84 -2.65,2.06 -4.26,2.17c-5.19,0.11 -10.38,0.04 -15.56,-0.02c-0.01,5.15 -0.18,10.31 0.14,15.46c7.29,3.48 15.02,-0.17 22.31,-1.53c0.53,0.31 1.59,0.92 2.12,1.22c0.48,1.52 0.94,3.66 -0.99,4.39c-5.52,2.98 -12.01,3.65 -18.19,3.75c-5.01,-0.09 -11.25,-1.67 -13.09,-6.94c-0.67,-5.38 -0.12,-10.84 -0.3,-16.26c-2.75,-0.24 -7.41,0.66 -8.2,-2.93c0.12,-4.16 5.29,-3.56 8.23,-3.57c-0.08,-3.22 -0.2,-6.51 0.94,-9.59Z" style="fill:#fdfdfd;fill-rule:nonzero;"/><path d="M283.01,214.328c4.07,-0.62 8.21,-0.23 12.32,-0.32c-0.06,0.54 -0.17,1.61 -0.22,2.15c9.11,-4.84 21.73,-4.01 28.71,4.12c4.07,4.16 4.11,11.5 -0.17,15.53c-7.37,7.29 -19.4,7.91 -28.42,3.45c-0.05,3.54 -0.06,7.08 -0.01,10.62c3.01,0.03 6.31,-0.62 9.09,0.84c2.04,1.65 0.94,5.07 -1.67,5.26c-5.36,0.6 -10.78,0.13 -16.15,0.26c-2.39,0.04 -6.09,-0.25 -6.05,-3.44c0.38,-3.32 4.41,-2.86 6.83,-3.1c-0.04,-9.7 0.04,-19.4 0.01,-29.09c-1.91,-0.25 -3.98,-0.12 -5.69,-1.12c-1.94,-1.47 -1.04,-4.93 1.42,-5.16m19.06,6.1c-3.1,1.04 -5.84,3.62 -6.77,6.77c-0.45,4.3 4.07,6.87 7.61,7.93c5.81,1.5 13.83,-0.13 16.1,-6.38c-0.49,-7.91 -10.51,-10.74 -16.94,-8.32Z" style="fill:#fdfdfd;fill-rule:nonzero;"/><path d="M340.04,215.368c4.91,-0.62 9.85,-0.27 14.78,-0.4c-0.01,0.97 -0.05,2.92 -0.07,3.9c5.74,-2.95 12.59,-6.65 19.02,-3.4c2.56,0.82 6.3,4 3.39,6.57c-3.76,3.41 -7.2,-2.85 -11.1,-0.96c-4.04,1.56 -7.75,3.92 -11.21,6.5c-0.18,3.23 -0.02,6.47 0.03,9.7c5.42,0.24 11.03,-0.81 16.26,1.05c0.54,1.83 0.67,4.5 -1.68,5.01c-4.92,0.77 -9.93,0.22 -14.89,0.37c-5.74,-0.21 -11.59,0.57 -17.24,-0.77c-0.47,-1.58 -1.23,-3.54 0.36,-4.76c2.82,-1.41 6.14,-0.76 9.19,-1.01c-0.05,-5.22 -0.02,-10.44 0.01,-15.66c-2.69,-0.3 -6.38,0.65 -8.11,-2.05c-0.85,-1.56 0.4,-2.9 1.26,-4.09Z" style="fill:#fdfdfd;fill-rule:nonzero;"/><path d="M390.32,220.418c5.3,-5.02 13.05,-6.93 20.18,-6.02c5.34,0.64 10.87,2.6 14.23,7.02c2.45,3.15 3.13,7.15 3.28,11.05c-7.89,0.37 -15.78,0 -23.67,0.15c-3.15,0.02 -6.31,0.01 -9.45,0.06c2.22,2.96 5.47,4.96 9.17,5.47c6.96,0.78 13.7,-1.43 20.55,-1.96c2.78,-0.2 4.61,3.88 1.78,5.2c-6.43,2.98 -13.78,3.12 -20.74,3.31c-5.95,-0.29 -12.27,-2.2 -16.12,-7c-4.35,-4.75 -3.94,-12.93 0.79,-17.28m4.74,5.66c4.08,0.17 8.17,0.08 12.26,0.1c3.93,0.23 7.88,0.18 11.82,0.02c-1.74,-3.25 -5.33,-4.68 -8.72,-5.46c-5.65,-0.73 -11.67,0.75 -15.36,5.34Z" style="fill:#fdfdfd;fill-rule:nonzero;"/><path d="M446.92,216.978c6.75,-3.7 14.91,-3.23 22.15,-1.4c2.13,-0.48 5.05,-1.11 6.31,1.28c0.79,2.48 0.12,5.09 -0.26,7.58c-2.93,1.17 -6.28,0.99 -7.85,-2.1c-5.36,-2.24 -11.79,-2.51 -16.92,0.47c1.58,1.34 3.56,2 5.59,2.28c4.84,0.62 9.7,1.26 14.43,2.49c4.06,1.25 7.25,5.01 7.31,9.35c-3.59,6.26 -11.49,7.61 -18.08,7.76c-4.54,0.3 -8.85,-1.64 -13.37,-1.36c-1.45,0 -3.08,0.17 -4.24,-0.89c-1.24,-2.76 -0.65,-5.83 -0.16,-8.68c1.49,-0.3 3.02,-1.01 4.57,-0.63c2.27,1.21 3.54,4 6.3,4.4c5.87,1.36 12.64,1.53 17.73,-2.19c-1.47,-0.98 -3,-1.87 -4.62,-2.59c-0.42,-0.08 -1.26,-0.26 -1.68,-0.34c-7.2,-1.21 -17.34,0.15 -21.3,-7.48c-0.78,-3.31 1.2,-6.47 4.09,-7.95Z" style="fill:#fdfdfd;fill-rule:nonzero;"/><path d="M492.13,221.178c7.24,-7.59 19.36,-8.77 28.71,-4.73c4.86,1.92 8.53,6.42 9.62,11.51c0.44,0.04 1.32,0.12 1.77,0.16c-0.67,0.23 -1.34,0.46 -2,0.69c0.06,0.95 0.17,2.84 0.22,3.79c-11,0.11 -22,-0.15 -33,0.1c3.39,5.31 10.21,6.04 15.95,5.5c5.45,-0.31 10.74,-2.48 16.25,-1.61c0.36,1.6 1.51,3.87 -0.58,4.81c-4.75,2.41 -10.28,2.62 -15.48,3.17c-7.73,0.65 -16.6,-0.88 -21.69,-7.29c-3.83,-4.58 -3.21,-11.48 0.23,-16.1m13,-0.28l0.04,0.2c-2.92,0.82 -5.3,2.71 -7.25,4.96c6.2,0.2 12.41,0.44 18.62,0.51c1.78,-0.08 3.9,0.46 5.26,-1.04l-0.46,0.02c-1.58,-1.84 -3.56,-3.35 -5.86,-4.14c-1.94,-0.57 -3.96,-0.81 -5.97,-0.75c-0.68,0.04 -2.02,0.13 -2.7,0.17c-0.42,0.02 -1.26,0.05 -1.68,0.07Z" style="fill:#fdfdfd;fill-rule:nonzero;"/><path d="M543.03,215.208c3.45,-0.4 6.94,-0.14 10.42,-0.21c0.05,0.49 0.16,1.48 0.22,1.97c5.29,-2.96 11.77,-3.66 17.53,-1.66c3.57,1.29 6.95,4.23 7.3,8.24c0.41,4.46 0.11,8.96 0.16,13.44c1.82,0.71 4.98,0.36 5.36,2.86c0.63,2.19 -1.55,3.7 -3.5,3.76c-4.28,0.29 -8.59,0.21 -12.86,-0.15c-0.61,-0.37 -1.21,-0.75 -1.81,-1.11c-0.18,-0.44 -0.53,-1.3 -0.7,-1.73c0.29,-3.02 3.38,-3.03 5.6,-3.67c-0.26,-4.63 0.5,-9.37 -0.42,-13.94c-1.75,-2.45 -5.18,-2.48 -7.89,-2.35c-3.41,0.14 -6.08,2.5 -8.81,4.24l-0.25,0.15c0.07,4.06 0.1,8.12 0.27,12.18c1.35,0.16 2.7,0.32 4.06,0.47c0.93,1.53 1.24,3.24 1.03,5.02c-4.99,1.31 -10.22,1.13 -15.3,0.69c-1.38,-0.04 -3.07,-1.12 -2.88,-2.66c-0.51,-3.05 3.26,-3.17 5.29,-3.87c-0.02,-0.46 -0.06,-1.37 -0.08,-1.83c-0.07,-4.48 -0.02,-8.97 -0.03,-13.45c-1.48,-0.46 -3.35,-0.19 -4.51,-1.38c-2.12,-1.48 -0.46,-4.78 1.8,-5.01Z" style="fill:#fdfdfd;fill-rule:nonzero;"/><path d="M654.62,215.818c6.27,-2.39 13.28,-1.95 19.66,-0.16c2.21,-0.72 4.64,-0.77 6.48,0.88c0.13,2.88 1.36,7.86 -2.67,8.6c-2.58,0.88 -4.29,-1.47 -6,-2.92c-5.21,-2.31 -11.53,-2.16 -16.6,0.46c2.02,2.81 5.89,2.36 8.93,2.94c5.67,0.83 12.42,0.94 16.52,5.56c2.76,2.76 2.02,7.61 -1.19,9.69c-7.11,4.58 -16.24,4.59 -24.23,2.76c-2.59,-0.82 -5.28,0.22 -7.91,-0.32c-1.4,-2.68 -1.64,-5.98 -0.57,-8.82c1.36,-2.18 4.37,-1.84 6.31,-0.67c1.07,3.23 4.76,3.76 7.66,4.23c4.38,0.39 9.17,0.48 13.14,-1.71c1.39,-1.61 -0.69,-2.64 -1.99,-3.13c-6.4,-1.73 -13.37,-0.91 -19.54,-3.63c-2.83,-1.21 -5.11,-4.23 -4.53,-7.4c0.5,-3.31 3.67,-5.23 6.53,-6.36Z" style="fill:#fdfdfd;fill-rule:nonzero;"/></g></g></svg>